<svg xmlns="http://www.w3.org/2000/svg" width="131.96" height="35" viewBox="0 0 131.96 35"><rect class="svg__rect" x="0" y="0" width="131.96" height="35" fill="#D40023"/><rect class="svg__rect" x="131.96" y="0" width="0" height="35" fill="#389AD5"/><path class="svg__text" d="M15.00 22L13.46 22L16.68 13.47L18.01 13.47L21.24 22L19.69 22L18.99 20.01L15.69 20.01L15.00 22ZM17.34 15.28L16.10 18.82L18.58 18.82L17.34 15.28ZM26.67 22L25.19 22L25.19 13.47L27.11 13.47L29.57 20.01L32.03 13.47L33.95 13.47L33.95 22L32.47 22L32.47 19.19L32.62 15.43L30.10 22L29.04 22L26.52 15.43L26.67 19.19L26.67 22ZM40.16 22L38.69 22L38.69 13.47L40.61 13.47L43.07 20.01L45.52 13.47L47.44 13.47L47.44 22L45.96 22L45.96 19.19L46.11 15.43L43.59 22L42.53 22L40.02 15.43L40.16 19.19L40.16 22ZM52.96 22L51.42 22L54.64 13.47L55.97 13.47L59.20 22L57.65 22L56.96 20.01L53.65 20.01L52.96 22ZM55.30 15.28L54.07 18.82L56.54 18.82L55.30 15.28ZM64.64 22L63.15 22L63.15 13.47L66.15 13.47Q67.63 13.47 68.43 14.13Q69.24 14.79 69.24 16.05L69.24 16.05Q69.24 16.90 68.82 17.48Q68.41 18.06 67.67 18.37L67.67 18.37L69.59 21.92L69.59 22L68.00 22L66.29 18.71L64.64 18.71L64.64 22ZM64.64 14.66L64.64 17.52L66.16 17.52Q66.91 17.52 67.33 17.15Q67.75 16.77 67.75 16.11L67.75 16.11Q67.75 15.43 67.36 15.05Q66.97 14.68 66.20 14.66L66.20 14.66L64.64 14.66ZM81.09 22L79.61 22L79.61 13.47L81.09 13.47L81.09 17.47L81.91 16.46L84.41 13.47L86.20 13.47L83.03 17.25L86.38 22L84.62 22L82.06 18.31L81.09 19.34L81.09 22ZM91.64 22L90.16 22L90.16 13.47L91.64 13.47L91.64 17.02L95.46 17.02L95.46 13.47L96.93 13.47L96.93 22L95.46 22L95.46 18.21L91.64 18.21L91.64 22ZM102.45 22L100.91 22L104.14 13.47L105.47 13.47L108.69 22L107.15 22L106.45 20.01L103.14 20.01L102.45 22ZM104.80 15.28L103.56 18.82L106.03 18.82L104.80 15.28ZM114.13 22L112.65 22L112.65 13.47L114.13 13.47L117.95 19.54L117.95 13.47L119.42 13.47L119.42 22L117.93 22L114.13 15.95L114.13 22Z" fill="#FFFFFF"/><path class="svg__text" d="" fill="#FFFFFF" x="144.96"/></svg>